<!DOCTYPE svg PUBLIC "-//W3C//DTD SVG 1.1//EN" "http://www.w3.org/Graphics/SVG/1.1/DTD/svg11.dtd">
<!-- Uploaded to: SVG Repo, www.svgrepo.com, Transformed by: SVG Repo Mixer Tools -->
<svg width="800px" height="800px" viewBox="0 0 20 20" version="1.1" xmlns="http://www.w3.org/2000/svg" fill="#000000" stroke="#000000">
<g id="SVGRepo_bgCarrier" stroke-width="0"/>
<g id="SVGRepo_tracerCarrier" stroke-linecap="round" stroke-linejoin="round"/>
<g id="SVGRepo_iconCarrier"> <g id="layer1"> <path d="M 0 6 L 0 15 L 20 15 L 20 6 L 0 6 z M 1 7 L 19 7 L 19 14 L 1 14 L 1 7 z M 14 8 L 14 9 L 18 9 L 18 8 L 14 8 z M 2 9 L 2 10 L 12 10 L 12 9 L 2 9 z M 2 11 L 2 12 L 8 12 L 8 11 L 2 11 z M 15 12 L 15 13 L 18 13 L 18 12 L 15 12 z " style="fill:#FFF6DE; fill-opacity:1; stroke:none; stroke-width:0px;"/> </g> </g>
</svg>