<!DOCTYPE svg PUBLIC "-//W3C//DTD SVG 1.1//EN" "http://www.w3.org/Graphics/SVG/1.1/DTD/svg11.dtd">
<!-- Uploaded to: SVG Repo, www.svgrepo.com, Transformed by: SVG Repo Mixer Tools -->
<svg fill="#6681A5" height="800px" width="800px" version="1.1" id="Layer_1" xmlns="http://www.w3.org/2000/svg" xmlns:xlink="http://www.w3.org/1999/xlink" viewBox="0 0 511.999 511.999" xml:space="preserve">
<g id="SVGRepo_bgCarrier" stroke-width="0"/>
<g id="SVGRepo_tracerCarrier" stroke-linecap="round" stroke-linejoin="round"/>
<g id="SVGRepo_iconCarrier"> <g> <g> <g> <path d="M437.019,74.98C388.666,26.629,324.378,0,255.998,0S123.332,26.629,74.98,74.98C26.629,123.334,0,187.619,0,255.998 c0,68.381,26.629,132.67,74.98,181.021c48.351,48.352,112.64,74.98,181.018,74.98c68.38,0,132.667-26.629,181.02-74.98 c48.353-48.352,74.981-112.639,74.981-181.021C512,187.619,485.371,123.334,437.019,74.98z M476.199,175.444l-101.721,31.995 c-13.005-31.614-38.306-56.915-69.921-69.919L336.553,35.8C401.142,59.502,452.498,110.856,476.199,175.444z M362.511,255.999 c0.001,58.732-47.78,106.516-106.512,106.516c-58.732,0-106.514-47.783-106.514-106.516c0-58.73,47.781-106.511,106.514-106.511 C314.73,149.488,362.511,197.269,362.511,255.999z M255.998,21.54c20.736,0,40.846,2.719,60.007,7.795l-31.991,101.708 c-9.021-2.022-18.394-3.096-28.016-3.096s-18.996,1.075-28.017,3.096L195.99,29.335C215.152,24.26,235.262,21.54,255.998,21.54z M175.442,35.8l31.997,101.72c-31.614,13.004-56.917,38.307-69.922,69.921L35.799,175.444 C59.5,110.858,110.856,59.502,175.442,35.8z M21.54,255.998c0-20.734,2.718-40.846,7.795-60.007l101.705,31.992 c-2.02,9.02-3.095,18.393-3.095,28.015c0,9.624,1.075,18.997,3.096,28.019l-101.705,31.99 C24.258,296.847,21.54,276.735,21.54,255.998z M35.8,336.555l101.718-31.995c13.005,31.613,38.307,56.917,69.923,69.921 l-31.997,101.72C110.857,452.5,59.502,401.144,35.8,336.555z M255.999,490.46c-20.738,0-40.846-2.718-60.007-7.796 l31.992-101.706c9.02,2.022,18.393,3.096,28.015,3.096s18.997-1.075,28.019-3.096l19.188,61.003 c-15.248,3.849-31.081,5.852-47.207,5.852c-5.948,0-10.77,4.822-10.77,10.77c0,5.946,4.822,10.77,10.77,10.77 c18.35,0,36.362-2.331,53.682-6.809l6.327,20.121C296.848,487.743,276.736,490.46,255.999,490.46z M336.555,476.199 l-6.323-20.103c35.27-13.057,66.815-35.398,91.267-65.453c3.754-4.615,3.057-11.397-1.556-15.151 c-4.615-3.754-11.399-3.059-15.151,1.558c-21.748,26.731-49.733,46.686-81.029,58.474l-19.201-61.045 c31.614-13.004,56.915-38.307,69.919-69.921l101.72,31.997C452.499,401.142,401.144,452.498,336.555,476.199z M380.957,284.017 c2.022-9.022,3.095-18.395,3.095-28.017c0-9.622-1.074-18.995-3.095-28.017l101.707-31.99 c5.077,19.161,7.796,39.271,7.796,60.007s-2.719,40.846-7.796,60.007L380.957,284.017z"/> <path d="M164.036,75.174c-2.974-5.151-9.562-6.919-14.712-3.942c-22.578,13.035-42.37,29.899-58.825,50.125 c-3.754,4.613-3.058,11.397,1.557,15.151c1.999,1.626,4.402,2.415,6.791,2.415c3.129,0,6.233-1.357,8.362-3.973 c14.793-18.183,32.587-33.345,52.885-45.064C165.246,86.911,167.011,80.325,164.036,75.174z"/> <path d="M425.983,366.965c1.666,0.94,3.477,1.384,5.263,1.384c3.763,0,7.422-1.973,9.405-5.478l0.081-0.137 c3.008-5.132,1.285-11.731-3.848-14.737c-5.133-3.006-11.73-1.283-14.738,3.849l-0.282,0.49 C418.962,357.517,420.809,364.05,425.983,366.965z"/> <path d="M86.014,145.03c-5.175-2.913-11.742-1.071-14.668,4.098l-0.101,0.172c-2.987,5.142-1.225,11.705,3.916,14.695 c1.696,0.987,3.551,1.454,5.383,1.454c3.723,0,7.351-1.931,9.355-5.376l0.234-0.408C93.037,154.483,91.189,147.946,86.014,145.03 z"/> </g> </g> </g> </g>
</svg>