<!DOCTYPE svg PUBLIC "-//W3C//DTD SVG 1.1//EN" "http://www.w3.org/Graphics/SVG/1.1/DTD/svg11.dtd">
<!-- Uploaded to: SVG Repo, www.svgrepo.com, Transformed by: SVG Repo Mixer Tools -->
<svg fill="#6681A5" height="800px" width="800px" version="1.1" id="Layer_1" xmlns="http://www.w3.org/2000/svg" xmlns:xlink="http://www.w3.org/1999/xlink" viewBox="0 0 511.998 511.998" xml:space="preserve">
<g id="SVGRepo_bgCarrier" stroke-width="0"/>
<g id="SVGRepo_tracerCarrier" stroke-linecap="round" stroke-linejoin="round"/>
<g id="SVGRepo_iconCarrier"> <g> <g> <path d="M269.622,51.947c-11.646-10.77-15.764-6.556-14.346-23.327c0.56-6.393,2.222-16.596,3.173-24.504 c0.182-1.506-0.581-2.969-1.92-3.683c-1.339-0.714-2.979-0.533-4.129,0.457c-6.056,5.214-12.735,12.779-17.187,21.416 c-17.736,35.25,15.489,48.07,18.487,52.807c2.068,1.837,1.601,10.133,1.367,12.907c-0.503,5.741-2.186,16.431-3.143,24.568 c-0.177,1.504,0.586,2.961,1.923,3.674c1.336,0.711,2.973,0.533,4.122-0.453c6.067-5.201,12.78-12.792,17.24-21.449 C282.985,78.899,282.285,63.558,269.622,51.947z"/> </g> </g> <g> <g> <path d="M209.371,93.842c-9.475-8.762-12.901-5.394-11.742-19.093c0.42-4.792,1.586-12.158,2.379-18.318 c0.197-1.53-0.583-3.021-1.952-3.732c-1.369-0.71-3.037-0.493-4.176,0.549c-4.916,4.5-9.581,10.339-12.671,16.334 c-14.479,28.781,12.529,39.106,15.131,43.222c1.746,1.546,1.293,8.503,1.118,10.565c-0.373,4.253-1.564,11.966-2.365,18.373 c-0.19,1.527,0.59,3.012,1.957,3.72c1.367,0.708,3.032,0.491,4.169-0.548c4.813-4.394,9.558-10.216,12.724-16.357 C220.291,115.933,219.782,103.387,209.371,93.842z"/> </g> </g> <g> <g> <path d="M325.431,84.671c-1.228-2.294-0.925-7.322-0.705-9.924c0.444-5.055,1.592-12.255,2.375-18.297 c0.198-1.532-0.581-3.024-1.952-3.736c-1.37-0.711-3.041-0.493-4.179,0.55c-4.797,4.397-9.508,10.186-12.666,16.313 c-14.482,28.789,12.531,39.11,15.133,43.224c1.746,1.546,1.292,8.512,1.118,10.565c-0.42,4.79-1.586,12.176-2.37,18.37 c-0.194,1.528,0.587,3.015,1.954,3.724c1.368,0.709,3.034,0.492,4.171-0.547c4.826-4.406,9.573-10.236,12.729-16.362 C355.824,99.16,327.801,89.459,325.431,84.671z"/> </g> </g> <g> <g> <path d="M406.671,159.845H104.814c-7.471,0-13.528,6.057-13.528,13.528v44.101c0,7.472,6.056,13.529,13.528,13.529h301.857 c7.471,0,13.528-6.057,13.528-13.528v-44.102C420.199,165.902,414.142,159.845,406.671,159.845z"/> </g> </g> <g> <g> <path d="M125.958,264.756c0.534,0,3.213,5.558,3.641,6.253c1.314,2.134,2.682,4.236,4.103,6.301 c2.835,4.121,5.878,8.097,9.112,11.911c6.461,7.618,13.692,14.581,21.546,20.754c15.887,12.484,34.314,21.674,53.866,26.783 c12.25,3.201,24.919,4.83,37.58,4.83c11.327,0.001,22.622-1.315,33.624-3.882c12.479-2.912,24.582-7.432,35.925-13.464 c5.453-2.9,10.726-6.14,15.771-9.703c16.38-11.561,30.369-26.444,40.881-43.517c1.267-2.058,2.484-4.148,3.649-6.265 C385.657,264.756,125.967,264.756,125.958,264.756z"/> </g> </g> <g> <g> <path d="M185.066,360.907c-6.966-2.946-13.698-6.307-20.188-10.057L86.955,487.677c-4.446,7.807-1.721,17.74,6.085,22.186 c7.806,4.448,17.74,1.721,22.187-6.085l79.272-139.195C191.331,363.444,188.183,362.226,185.066,360.907z"/> </g> </g> <g> <g> <path d="M425.043,487.677l-78.02-136.995c-6.577,3.818-13.405,7.236-20.472,10.225c-3.014,1.275-6.054,2.458-9.116,3.563 l79.336,139.306c4.444,7.804,14.373,10.534,22.187,6.085C426.764,505.417,429.488,495.484,425.043,487.677z"/> </g> </g> <g> <g> <path d="M255.808,375.202c-5.396,0-10.756-0.248-16.077-0.711v120.777c0,8.759,6.732,16.297,15.481,16.709 c9.342,0.44,17.054-7.004,17.054-16.248V374.457C266.82,374.944,261.334,375.202,255.808,375.202z"/> </g> </g> </g>
</svg>