<svg xmlns="http://www.w3.org/2000/svg" xmlns:xlink="http://www.w3.org/1999/xlink" viewBox="0,0,256,256" width="144px" height="144px" fill-rule="nonzero"><g fill="none" fill-rule="nonzero" stroke="none" stroke-width="1" stroke-linecap="butt" stroke-linejoin="miter" stroke-miterlimit="10" stroke-dasharray="" stroke-dashoffset="0" font-family="none" font-weight="none" font-size="none" text-anchor="none" style="mix-blend-mode: normal"><g transform="scale(5.33333,5.33333)"><path d="M35,42h-22c-3.866,0 -7,-3.134 -7,-7v-22c0,-3.866 3.134,-7 7,-7h22c3.866,0 7,3.134 7,7v22c0,3.866 -3.134,7 -7,7z" fill-opacity="0" fill="#000000"></path><path d="M17.5,18.5h14c0.552,0 1,-0.448 1,-1v-2.5c0,-0.552 -0.448,-1 -1,-1h-14c-0.552,0 -1,0.448 -1,1v2.5c0,0.552 0.448,1 1,1z" fill="#fff6de"></path><path d="M17,34.5h14.5c0.552,0 1,-0.448 1,-1v-2.5c0,-0.552 -0.448,-1 -1,-1h-14.5c-0.552,0 -1,0.448 -1,1v2.5c0,0.552 0.448,1 1,1z" fill="#fff6de"></path><path d="M22.25,11v6c0,0.276 0.224,0.5 0.5,0.5h3.5c0.276,0 0.5,-0.224 0.5,-0.5v-6c0,-0.276 -0.224,-0.5 -0.5,-0.5h-3.5c-0.276,0 -0.5,0.224 -0.5,0.5z" fill="#fff6de"></path><path d="M22.25,32v6c0,0.276 0.224,0.5 0.5,0.5h3.5c0.276,0 0.5,-0.224 0.5,-0.5v-6c0,-0.276 -0.224,-0.5 -0.5,-0.5h-3.5c-0.276,0 -0.5,0.224 -0.5,0.5z" fill="#fff6de"></path><path d="M16.578,30.938h5.422l10.294,-12.839c0.178,-0.222 0.019,-0.552 -0.266,-0.552h-5.528l-10.225,12.751c-0.21,0.255 -0.028,0.64 0.303,0.64z" fill="#fff6de"></path></g></g></svg>